<?xml version="1.0" encoding="UTF-8"?>
<!DOCTYPE svg PUBLIC "-//W3C//DTD SVG 1.1//EN" "http://www.w3.org/Graphics/SVG/1.1/DTD/svg11.dtd">
<!-- Creator: CorelDRAW 2020 (64-Bit) -->
<svg xmlns="http://www.w3.org/2000/svg" xml:space="preserve" width="500px" height="500px" version="1.1" style="shape-rendering:geometricPrecision; text-rendering:geometricPrecision; image-rendering:optimizeQuality; fill-rule:evenodd; clip-rule:evenodd"
viewBox="0 0 400 500"
 xmlns:xlink="http://www.w3.org/1999/xlink"
 xmlns:xodm="http://www.corel.com/coreldraw/odm/2003">
 <defs>
  <style type="text/css">
   <![CDATA[
    .fil0 {fill:#EF7F1A;fill-rule:nonzero}
   ]]>
  </style>
 </defs>
 <g id="Слой_x0020_1">
  <metadata id="CorelCorpID_0Corel-Layer"/>
  <path class="fil0" d="M91.53 268.79c-8.31,0 -15.05,-6.74 -15.05,-15.05 0,-8.31 6.74,-15.05 15.05,-15.05l33.66 0c8.31,0 15.05,6.74 15.05,15.05 0,8.31 -6.74,15.05 -15.05,15.05l-33.66 0zm170.73 146.68c0,-8.31 6.73,-15.04 15.04,-15.04 8.32,0 15.05,6.73 15.05,15.04l0 20.3c0,8.31 -6.73,15.05 -15.05,15.05l-226.91 0c-8.31,0 -15.05,-6.74 -15.05,-15.05l0 -371.54c0,-8.31 6.74,-15.05 15.05,-15.05l226.91 0c8.32,0 15.05,6.74 15.05,15.05l0 51.29c0,8.31 -6.73,15.05 -15.05,15.05 -8.31,0 -15.04,-6.74 -15.04,-15.05l0 -36.24 -196.82 0 0 341.44 196.82 0 0 -5.25zm-57.27 -175.53l12.38 0 0 -32.33c0,-16.83 6.88,-32.14 17.96,-43.22l0.03 0.03c11.11,-11.1 26.41,-17.99 43.19,-17.99 16.83,0 32.14,6.88 43.22,17.96l-0.03 0.03c11.1,11.11 17.99,26.4 17.99,43.19l0 32.33 9.88 0c8.31,0 15.05,6.74 15.05,15.05l0 120.94c0,8.31 -6.74,15.05 -15.05,15.05l-144.62 0c-8.31,0 -15.05,-6.74 -15.05,-15.05l0 -120.94c0,-8.31 6.74,-15.05 15.05,-15.05zm129.58 30.1l-9.89 0 -92.26 0 -12.38 0 0 90.84 114.53 0 0 -90.84zm-24.94 -30.1l0 -32.33c0,-8.57 -3.48,-16.34 -9.08,-21.94l-0.03 -0.03 -0.03 0.03c-5.64,-5.64 -13.41,-9.14 -21.94,-9.14 -8.57,0 -16.34,3.48 -21.94,9.08l-0.03 0.03 0.03 0.03c-5.64,5.64 -9.14,13.41 -9.14,21.94l0 32.33 62.16 0z"/>
 </g>
</svg>
